<svg xmlns="http://www.w3.org/2000/svg" width="24" height="23.419" viewBox="0 0 24 23.419">
  <path id="shanchu" d="M18.731,32.994a1.464,1.464,0,0,1-1.462,1.462H6.731a1.465,1.465,0,0,1-1.462-1.462V17.469H18.731ZM8.194,14.844a.3.3,0,0,1,.3-.3h7.031a.3.3,0,0,1,.3.3v.881H8.194Zm14.925.881h-5.55v-.881A2.049,2.049,0,0,0,15.525,12.8H8.494A2.048,2.048,0,0,0,6.45,14.844v.881H.881a.881.881,0,1,0,0,1.762H3.506V32.994a3.225,3.225,0,0,0,3.225,3.225H17.269a3.225,3.225,0,0,0,3.225-3.225V17.469h2.625A.88.88,0,0,0,24,16.588a.864.864,0,0,0-.881-.862ZM12,31.813a.88.88,0,0,0,.881-.881V21.556a.881.881,0,1,0-1.762,0v9.375a.88.88,0,0,0,.881.881m-4.106,0a.88.88,0,0,0,.881-.881V21.556a.881.881,0,1,0-1.762,0v9.375a.905.905,0,0,0,.881.881m8.212,0a.881.881,0,0,0,.882-.881V21.556a.882.882,0,0,0-1.763,0v9.375a.88.88,0,0,0,.881.881" transform="translate(0 -12.8)" fill="#fff"/>
</svg>
