<svg xmlns="http://www.w3.org/2000/svg" width="200" height="272" viewBox="0 0 200 272">
  <g id="组_290" data-name="组 290" transform="translate(-532.847 -352.424)">
    <g id="组_279" data-name="组 279" transform="translate(521 376)">
      <rect id="矩形_669" data-name="矩形 669" width="200" height="272" transform="translate(11.847 -23.576)" fill="#fff" opacity="0.2"/>
      <g id="组_145" data-name="组 145" transform="translate(29.808 0)">
        <text id="商务合作" transform="translate(0.04 14.423)" fill="#fff" font-size="13" font-family="YuGothicUI-Regular, Yu Gothic UI"><tspan x="0" y="0">商</tspan><tspan y="0" font-family="MicrosoftJhengHeiUIRegular, Microsoft JhengHei UI">务</tspan><tspan y="0">合作</tspan></text>
        <g id="组_108" data-name="组 108" transform="translate(0.679 32.154)">
          <text id="北京市朝阳区朝阳北路225号_京龙大厦12层_service_tana-wheels.com_宁波戴特贸易有限公司" data-name="北京市朝阳区朝阳北路225号
京龙大厦12层

service@tana-wheels.com
宁波戴特贸易有限公司" transform="translate(24.361 12.269)" fill="#fff" font-size="11" font-family="YuGothicUI-Regular, Yu Gothic UI"><tspan x="0" y="0">北京市朝阳区朝阳北路</tspan><tspan y="0" font-family="ArialMT, Arial">225</tspan><tspan y="0">号</tspan><tspan y="0" font-family="ArialMT, Arial"></tspan><tspan x="0" y="25">京</tspan><tspan y="25" font-family="MicrosoftJhengHeiUIRegular, Microsoft JhengHei UI">龙</tspan><tspan y="25">大厦</tspan><tspan y="25" font-family="ArialMT, Arial">12</tspan><tspan y="25" font-family="MicrosoftJhengHeiUIRegular, Microsoft JhengHei UI">层</tspan><tspan y="25" font-family="ArialMT, Arial"></tspan><tspan font-family="ArialMT, Arial"><tspan x="0" y="50"></tspan><tspan x="0" y="75">service@tana-wheels.com</tspan></tspan><tspan x="0" y="100">宁波戴特</tspan><tspan y="100" font-family="MicrosoftJhengHeiUIRegular, Microsoft JhengHei UI">贸</tspan><tspan y="100">易有限公司</tspan></text>
          <path id="定位" d="M96.061,10.92h1.494v.742h-4.8V10.92h1.441c-1.227-1.272-3.841-4.187-3.841-6.149a4.8,4.8,0,0,1,9.6,0c0,1.961-2.614,4.876-3.895,6.149ZM95.155.849a3.926,3.926,0,0,0-3.948,3.922c0,1.7,2.614,4.4,3.948,5.831C96.488,9.171,99.1,6.468,99.1,4.772A3.926,3.926,0,0,0,95.155.849Zm.054,5.671A2.12,2.12,0,1,1,97.342,4.4,2.12,2.12,0,0,1,95.208,6.521Zm0-3.392A1.272,1.272,0,1,0,96.488,4.4a1.294,1.294,0,0,0-1.28-1.272Z" transform="translate(-89.622 2.953)" fill="#fff"/>
          <path id="email" d="M11.692,153.3v-.045a.749.749,0,0,0-.215-.506l-.016-.016a.015.015,0,0,1-.016-.016c-.031-.031-.061-.045-.092-.077-.016,0-.016-.016-.031-.016-.031-.016-.077-.031-.108-.045-.016,0-.016-.016-.031-.016a.439.439,0,0,0-.138-.031h-.031c-.045,0-.108-.016-.169-.016H.83a.744.744,0,0,0-.185.016.053.053,0,0,0-.045.016c-.045.016-.092.016-.122.031-.016,0-.016.016-.031.016-.031.016-.077.031-.108.045l-.016.016c-.031.016-.061.045-.092.061l-.045.045a.726.726,0,0,0-.185.415v6.89a.739.739,0,0,0,.291.506.9.9,0,0,0,.506.153h10.1a.513.513,0,0,0,.153-.016h.031c.045-.016.092-.016.122-.031h.016a.708.708,0,0,0,.476-.69v-6.675S11.692,153.319,11.692,153.3Zm-.982-.214L5.878,157.8l-1.105-1.074h0l-3.79-3.637h9.728ZM.57,159.855v-6.382l3.574,3.436Zm5.155.321H1.075l3.483-2.854,1.119,1.09a.321.321,0,0,0,.138.077h.094a.252.252,0,0,0,.138-.077l1.058-1.028,3.5,2.793H5.725Zm5.4-.307-3.59-2.9,3.59-3.5Z" transform="translate(0 -72.097)" fill="#fff"/>
        </g>
      </g>
    </g>
  </g>
</svg>
