<svg xmlns="http://www.w3.org/2000/svg" width="335.429" height="106" viewBox="0 0 335.429 106">
  <g id="Group_145" data-name="Group 145" transform="translate(-289.571 -2853)">
    <text id="商务合作" transform="translate(289.571 2878)" fill="#fff" font-size="24" font-family="PingFangSC-Medium, PingFang SC" font-weight="500"><tspan x="0" y="0">商务合作</tspan></text>
    <g id="Group_108" data-name="Group 108" transform="translate(-381 2508)">
      <text id="北京市朝阳区朝阳北路225号京龙大厦12层_business_tana-wheels.com" data-name="北京市朝阳区朝阳北路225号京龙大厦12层
business@tana-wheels.com" transform="translate(705 412)" fill="#fff" font-size="16" font-family="PingFangSC-Regular, PingFang SC"><tspan x="0" y="0">北京市朝阳区朝阳北路</tspan><tspan y="0" font-family="HelveticaNeue, Helvetica Neue">225</tspan><tspan y="0">号京龙大厦</tspan><tspan y="0" font-family="HelveticaNeue, Helvetica Neue">12</tspan><tspan y="0">层</tspan><tspan y="0" font-family="HelveticaNeue, Helvetica Neue"></tspan><tspan font-family="HelveticaNeue, Helvetica Neue"><tspan x="0" y="36">business@tana-wheels.com</tspan></tspan></text>
      <path id="定位" d="M98.164,14.954h2.044V15.97H93.638V14.954h1.971c-1.679-1.741-5.257-5.73-5.257-8.414a6.571,6.571,0,0,1,13.141,0c0,2.684-3.577,6.673-5.33,8.414ZM96.924,1.173a5.373,5.373,0,0,0-5.4,5.367c0,2.321,3.577,6.02,5.4,7.979,1.825-1.959,5.4-5.657,5.4-7.979a5.373,5.373,0,0,0-5.4-5.367ZM97,8.934a2.9,2.9,0,1,1,2.92-2.9A2.9,2.9,0,0,1,97,8.934Zm0-4.642a1.741,1.741,0,1,0,1.752,1.741A1.771,1.771,0,0,0,97,4.292Z" transform="translate(582.147 399.03)" fill="#fff"/>
      <path id="email" d="M16,153.592v-.062a1.024,1.024,0,0,0-.294-.692l-.021-.021a.021.021,0,0,1-.021-.021c-.043-.043-.084-.062-.126-.1-.021,0-.021-.021-.043-.021-.043-.021-.1-.043-.148-.062-.021,0-.021-.021-.043-.021a.6.6,0,0,0-.189-.043h-.043c-.062,0-.148-.021-.231-.021H1.135a1.017,1.017,0,0,0-.253.021.073.073,0,0,0-.062.021c-.062.021-.126.021-.167.043-.021,0-.021.021-.043.021-.043.021-.1.043-.148.062l-.021.021c-.043.021-.084.062-.126.084l-.062.062a.994.994,0,0,0-.253.568v9.428a1.012,1.012,0,0,0,.4.692,1.226,1.226,0,0,0,.692.21H14.906a.7.7,0,0,0,.21-.021h.043c.062-.021.126-.021.167-.043h.021a.969.969,0,0,0,.651-.945v-9.134S16,153.613,16,153.592Zm-1.343-.294-6.613,6.444-1.512-1.47h0L1.345,153.3H14.657ZM.779,162.557v-8.734l4.891,4.7ZM7.834,163H1.472l4.766-3.905,1.532,1.491a.44.44,0,0,0,.189.1h.128a.346.346,0,0,0,.189-.1l1.448-1.407L14.509,163H7.834Zm7.389-.42-4.912-3.967,4.912-4.786Z" transform="translate(671.5 285.479)" fill="#fff"/>
    </g>
  </g>
</svg>
