<svg xmlns="http://www.w3.org/2000/svg" xmlns:xlink="http://www.w3.org/1999/xlink" width="20" height="20" viewBox="0 0 20 20">
  <defs>
    <clipPath id="clip-path">
      <rect width="20" height="20" fill="none"/>
    </clipPath>
  </defs>
  <g id="tianmao" clip-path="url(#clip-path)">
    <path id="路径_2495" data-name="路径 2495" d="M17.288,0H2.711A2.7,2.7,0,0,0,0,2.706V17.255a2.7,2.7,0,0,0,2.711,2.706H17.289A2.7,2.7,0,0,0,20,17.255V2.706A2.7,2.7,0,0,0,17.288,0Zm0,0" fill="#ff002b"/>
    <path id="路径_2496" data-name="路径 2496" d="M888.962,1015.984a2.845,2.845,0,0,1-.786.118A3.069,3.069,0,0,0,888.962,1015.984Zm0,0" transform="translate(-870.83 -996.141)" fill="#fff"/>
    <path id="路径_2497" data-name="路径 2497" d="M0,138.544v0Zm1.866,17.138a3.119,3.119,0,0,0,.825.118,3.119,3.119,0,0,1-.825-.118Zm0,0" transform="translate(0 -135.838)" fill="#111"/>
    <path id="路径_2498" data-name="路径 2498" d="M820.094,858.6a2.2,2.2,0,0,0-2.082-2.2.2.2,0,0,0-.236,0h.255c.334.157.59,1.078.59,2.2a7.438,7.438,0,0,1-.078,1h.589a2.463,2.463,0,0,0,.786-.118A2.031,2.031,0,0,0,820.094,858.6Zm0,0" transform="translate(-801.805 -839.642)" fill="#fff"/>
    <path id="路径_2499" data-name="路径 2499" d="M195.388,856.391a.145.145,0,0,0-.118-.039.144.144,0,0,0-.117.039Zm0,0" transform="translate(-191.34 -839.626)" fill="#111"/>
    <path id="路径_2500" data-name="路径 2500" d="M89.587,858.352a2.2,2.2,0,0,0-2.082,2.2,2.084,2.084,0,0,0,.216.883,2.546,2.546,0,0,0,.786.118H89.1a7.383,7.383,0,0,1-.078-1C89,859.431,89.253,858.509,89.587,858.352Zm12.161,0a2.2,2.2,0,0,0-2.082,2.2,1.9,1.9,0,0,0,.255,1h1.336a7.431,7.431,0,0,1-.079-1C101.178,859.431,101.414,858.509,101.748,858.352Zm-5.54,1.745h-.825c-.255,0-.334.118-.216.294l.255.333c.078.118.216.294.256.372.039.039.039.039.118.039a.171.171,0,0,0,.118-.039c.079-.078.157-.255.255-.372l.216-.333C96.541,860.215,96.463,860.1,96.207,860.1Zm-6.365-1.745c.334.157.629,1.078.629,2.2a7.38,7.38,0,0,1-.079,1h1.336a2.1,2.1,0,0,0,.255-1A2.293,2.293,0,0,0,89.842,858.352Zm14.086,3.079a3.049,3.049,0,0,0,1.041-.588A3.933,3.933,0,0,1,103.928,861.431Zm0,0" transform="translate(-85.795 -841.587)" fill="#fff"/>
    <path id="路径_2501" data-name="路径 2501" d="M.924,818.533a2.747,2.747,0,0,1-.923-2v0A2.609,2.609,0,0,0,.924,818.533Zm.943.588a2.38,2.38,0,0,1-1-.588A4.046,4.046,0,0,0,1.866,819.122Zm0,0" transform="translate(0 -799.278)" fill="#111"/>
    <path id="路径_2502" data-name="路径 2502" d="M19.115,676.089c-.786-.451-1.591.372-1.709.549-1.041,1.2-2.2,2.648-4.283,2.648H6.876c-2.082,0-3.2-1.491-4.283-2.667-.157-.157-.923-1-1.709-.549-.707.432-.845,1.726-.884,2.589v1.372a2.608,2.608,0,0,0,.923,2,3.214,3.214,0,0,0,1,.588,2.084,2.084,0,0,1-.216-.883,2.2,2.2,0,0,1,2.082-2.2.2.2,0,0,1,.236,0,2.2,2.2,0,0,1,2.083,2.2,1.9,1.9,0,0,1-.255,1h8.251a2.1,2.1,0,0,1-.255-1,2.2,2.2,0,0,1,2.082-2.2.2.2,0,0,1,.236,0,2.2,2.2,0,0,1,2.082,2.2,2.088,2.088,0,0,1-.216.883,3.039,3.039,0,0,0,1.041-.588,2.625,2.625,0,0,0,.884-1.961V678.7c0-.9-.138-2.2-.845-2.608Zm-8.487,5.451-.216.294a1.592,1.592,0,0,0-.256.372.2.2,0,0,1-.157.079.171.171,0,0,1-.118-.039c-.079-.078-.157-.255-.256-.372l-.255-.333c-.118-.157,0-.294.216-.294h.825C10.668,681.246,10.746,681.363,10.629,681.54Zm0,0" transform="translate(0 -662.736)" fill="#111"/>
    <path id="路径_2503" data-name="路径 2503" d="M175,858.352h-.255c-.334.157-.59,1.078-.59,2.2a7.431,7.431,0,0,0,.079,1h1.3a7.438,7.438,0,0,0,.078-1C175.586,859.431,175.331,858.509,175,858.352Zm-12.16,0h-.255c-.334.157-.629,1.078-.629,2.2a7.434,7.434,0,0,0,.078,1h1.3a7.379,7.379,0,0,0,.079-1C163.406,859.431,163.17,858.509,162.836,858.352Zm0,0" transform="translate(-158.789 -841.587)" fill="#111"/>
    <path id="路径_2504" data-name="路径 2504" d="M150.64,196.047h2.868V195.3h-2.947v-1.588h2.672v-.785h-6.09v.745h2.672v1.588h-2.967v.745h2.868c-.294,1.117-1.2,2.078-2.868,3.039l.373.667a7.133,7.133,0,0,0,3.006-2.785,4.228,4.228,0,0,0,.668,1,8.746,8.746,0,0,0,2.338,1.784l.373-.667C151.858,198.126,150.935,197.165,150.64,196.047Zm6.64-1.294h.747v-.628h1.63v.628h.747v-.628h.747v-.745H160.4v-.451h-.747v.49h-1.63v-.49h-.747v.49h-.707v.745h.707Zm-1.512-1.451a1.829,1.829,0,0,0-1.454-.373h-.078v.745h.118a1.843,1.843,0,0,1,.923.157.452.452,0,0,1,.118.372v.255l-1.159.706.373.667.786-.451v.823l-1.159.706.373.667.786-.451v.628a.986.986,0,0,1-.216.588,4,4,0,0,1-.962.784l.373.667a3.725,3.725,0,0,0,1.159-.961,1.93,1.93,0,0,0,.373-1.078v-3.49A1.514,1.514,0,0,0,155.768,193.3Zm.786,1.961v3.412a1.106,1.106,0,0,0,1.119,1.118h2.338a1.106,1.106,0,0,0,1.12-1.118v-3.412Zm1.925,3.745h-.786a.361.361,0,0,1-.373-.372v-.745h1.159Zm0-1.882H157.32v-1.118h1.159Zm1.925,1.549a.361.361,0,0,1-.373.372h-.786V197.89H160.4Zm0-1.549h-1.159v-1.118H160.4Zm0,0" transform="translate(-143.98 -189.145)" fill="#fff"/>
  </g>
</svg>
