<svg xmlns="http://www.w3.org/2000/svg" width="375" height="30" viewBox="0 0 375 30">
  <g id="组_297" data-name="组 297" transform="translate(0 -48)">
    <g id="组_273" data-name="组 273" transform="translate(1)">
      <path id="联合_2" data-name="联合 2" d="M-4896-3255v-30h58v.151l.151-.151L-4823-3270.15l-14.849,14.849-.151-.151v.452Z" transform="translate(4895 3333)" fill="#1f1f1f"/>
      <text id="_1" data-name="1" transform="translate(28 68)" fill="#fff" font-size="14" font-family="Arial-BoldMT, Arial" font-weight="700"><tspan x="0" y="0">1</tspan></text>
    </g>
    <g id="组_272" data-name="组 272" transform="translate(27.302)">
      <path id="减去_1" data-name="减去 1" d="M-4817-3255h-70v-.454l14.7-14.7-14.7-14.7V-3285h70v.151l14.7,14.7-14.7,14.7v.453Z" transform="translate(4923 3333)" fill="#1f1f1f"/>
      <text id="_2" data-name="2" transform="translate(74 68)" fill="#fff" font-size="14" font-family="Arial-BoldMT, Arial" font-weight="700"><tspan x="0" y="0">2</tspan></text>
    </g>
    <g id="组_274" data-name="组 274" transform="translate(102)">
      <path id="减去_1-2" data-name="减去 1" d="M-4817-3255h-70v-.454l14.7-14.7-14.7-14.7V-3285h70v.151l14.7,14.7-14.7,14.7v.453Z" transform="translate(4923 3333)" fill="#1f1f1f"/>
      <text id="_3" data-name="3" transform="translate(74 68)" fill="#fff" font-size="14" font-family="Arial-BoldMT, Arial" font-weight="700"><tspan x="0" y="0">3</tspan></text>
    </g>
    <g id="组_275" data-name="组 275" transform="translate(177)">
      <path id="减去_1-3" data-name="减去 1" d="M-4817-3255h-70v-.454l14.7-14.7-14.7-14.7V-3285h70v.151l14.7,14.7-14.7,14.7v.453Z" transform="translate(4923 3333)" fill="#1f1f1f"/>
      <text id="_4" data-name="4" transform="translate(74 68)" fill="#fff" font-size="14" font-family="Arial-BoldMT, Arial" font-weight="700"><tspan x="0" y="0">4</tspan></text>
    </g>
    <g id="组_269" data-name="组 269" transform="translate(67)">
      <path id="减去_4" data-name="减去 4" d="M-4793-3255h-87v-.452l14.7-14.7-14.7-14.7v-.15h87v30Z" transform="translate(5101 3333)" fill="#1f1f1f"/>
      <text id="_5" data-name="5" transform="translate(264 68)" fill="#fff" font-size="14" font-family="Arial-BoldMT, Arial" font-weight="700"><tspan x="0" y="0">5</tspan></text>
    </g>
  </g>
</svg>
