<svg xmlns="http://www.w3.org/2000/svg" width="24" height="21.487" viewBox="0 0 24 21.487">
  <g id="bianji" transform="translate(0 -53.248)">
    <path id="路径_2509" data-name="路径 2509" d="M1.3,74.735h18.9a1.3,1.3,0,0,0,1.3-1.3V63.9a.648.648,0,1,0-1.3,0v9.478H1.3V54.544H19.231a.648.648,0,1,0,0-1.3H1.3a1.306,1.306,0,0,0-1.3,1.3v18.9A1.29,1.29,0,0,0,1.3,74.735Z" fill="#1299d6"/>
    <path id="路径_2510" data-name="路径 2510" d="M374.582,129.571l-14.192,14.18a.61.61,0,0,0,0,.9.637.637,0,0,0,.912,0L375.554,130.4a.61.61,0,0,0,0-.9A.711.711,0,0,0,374.582,129.571Z" transform="translate(-351.752 -74.307)" fill="#1299d6"/>
  </g>
</svg>
