<svg xmlns="http://www.w3.org/2000/svg" width="20" height="18.394" viewBox="0 0 20 18.394">
  <g id="icon1" transform="translate(-97.621 -134.74)">
    <path id="路径_2469" data-name="路径 2469" d="M124.973,150.023h-10.21a3.591,3.591,0,0,1-3.587-3.587V141.4a3.59,3.59,0,0,1,3.587-3.586h9.308a.58.58,0,1,1,0,1.161h-9.308a2.428,2.428,0,0,0-2.426,2.425v5.038a2.428,2.428,0,0,0,2.426,2.426h10.21a2.428,2.428,0,0,0,2.426-2.426s0-6.078,0-8.366a3.4,3.4,0,0,1,.948-2.6,2.86,2.86,0,0,1,1.991-.73.58.58,0,0,1-.077,1.158,1.7,1.7,0,0,0-1.131.428,2.323,2.323,0,0,0-.571,1.741c0,2.287,0,8.366,0,8.366A3.591,3.591,0,0,1,124.973,150.023Z" transform="translate(-13.256)" fill="#3b3b3b"/>
    <path id="路径_2470" data-name="路径 2470" d="M297.065,440.771h-8.413a.58.58,0,1,1,0-1.161h8.413a.58.58,0,1,1,0,1.161Z" transform="translate(-186.237 -298.125)" fill="#3b3b3b"/>
    <path id="路径_2471" data-name="路径 2471" d="M297.065,606.879h-8.413a.58.58,0,1,1,0-1.161h8.413a.58.58,0,1,1,0,1.161Z" transform="translate(-186.237 -460.558)" fill="#3b3b3b"/>
    <path id="路径_2472" data-name="路径 2472" d="M818.361,862.373m-1.161,0a1.161,1.161,0,1,0,1.161-1.161A1.161,1.161,0,0,0,817.2,862.373Z" transform="translate(-703.66 -710.399)" fill="#3b3b3b"/>
    <path id="路径_2473" data-name="路径 2473" d="M98.782,862.373m-1.161,0a1.161,1.161,0,1,0,1.161-1.161A1.161,1.161,0,0,0,97.621,862.373Z" transform="translate(0 -710.399)" fill="#3b3b3b"/>
  </g>
</svg>
